<?xml version="1.0" encoding="UTF-8"?>
<svg width="512" height="512" viewBox="0 0 512 512" xmlns="http://www.w3.org/2000/svg">
  <rect width="512" height="512" fill="#016fd0"/>
  <path d="M146 348h-32l-18-42h-1l-18 42H47l39-84h20l40 84zm84 0h-30l-4-12h-30l-4 12h-29l33-84h30l34 84zm78 0h-27l-21-30h-1v30h-26V264h37c10 0 18 2 24 6 7 5 11 12 11 21 0 12-6 21-18 26l21 31zm101 0h-83V264h81v20h-53v11h50v20h-50v13h55v20zm84 0h-29l-26-37-9 10v27h-28V264h28v30l34-30h35l-39 35 40 49zM189 307l-9-25h-1l-9 25h19zm92-19c0-6-4-9-12-9h-10v18h10c8 0 12-3 12-9z" fill="#fff"/>
  <path d="M0 160v192h512V160H0zm150 180h-36l-18-42h-1l-18 42H41l39-84h23l39 84zm89 0h-34l-4-12h-32l-4 12H134l34-84h32l35 84zm83 0h-30l-20-30h-1v30h-28V256h41c10 0 18 2 25 7 6 5 10 12 10 21 0 11-6 20-17 25l20 29zm99 0h-87V256h85v23h-55v13h52v23h-52v14h57v22zm91 0h-34l-27-38-8 9v29h-31V256h31v33l36-33h38l-43 38 46 56z" fill="#fff"/>
</svg>
